# xmcd
#
# Track frame offsets:
#	150
#	21646
#	39838
#	62302
#	79862
#	105902
#	120334
#	139238
#	161022
#	185478
#	203006
#	222918
#	244190
#	264238
#
# Disc length: 3773 seconds
#
# Revision: 0
# Processed by: cddbd v1.5.1PL2 Copyright (c) Steve Scherf et al.
# Submitted via: dBpowerAMP V4.0
#
DISCID=b60ebb0e
DTITLE=Mike Wells - Bury Your Marriage - Understanding Your Mate
DYEAR=1900
DGENRE=ChristianTeaching
TTITLE0=03-01
TTITLE1=03-02
TTITLE2=03-03
TTITLE3=03-04
TTITLE4=03-05
TTITLE5=03-06
TTITLE6=03-07
TTITLE7=03-08
TTITLE8=03-09
TTITLE9=03-10
TTITLE10=03-11
TTITLE11=03-12
TTITLE12=03-13
TTITLE13=03-14
EXTD=www.abidinglife.com
EXTT0=
EXTT1=
EXTT2=
EXTT3=
EXTT4=
EXTT5=
EXTT6=
EXTT7=
EXTT8=
EXTT9=
EXTT10=
EXTT11=
EXTT12=
EXTT13=
PLAYORDER=
